<svg xmlns="http://www.w3.org/2000/svg" xmlns:xlink="http://www.w3.org/1999/xlink" width="500" zoomAndPan="magnify" viewBox="0 0 375 374.999991" height="500" preserveAspectRatio="xMidYMid meet" version="1.0"><defs><g/></defs><rect x="-37.5" width="450" fill="#ffffff" y="-37.499999" height="449.999989" fill-opacity="1"/><rect x="-37.5" width="450" fill="#ffffff" y="-37.499999" height="449.999989" fill-opacity="1"/><rect x="-37.5" width="450" fill="#ffffff" y="-37.499999" height="449.999989" fill-opacity="1"/><g fill="#000000" fill-opacity="1"><g transform="translate(65.737238, 245.515424)"><g><path d="M 116.921875 -125.164062 L 116.921875 -151.617188 C 116.921875 -152.382812 116.15625 -153.34375 114.816406 -153.34375 L 89.898438 -153.34375 C 51.753906 -153.34375 0 -142.226562 0 -76.671875 C 0 -8.625 52.328125 0 89.898438 0 L 114.816406 0 C 116.15625 0 116.921875 -0.957031 116.921875 -1.726562 L 116.921875 -95.648438 L 58.078125 -95.648438 L 58.078125 -66.320312 L 87.597656 -66.320312 L 87.597656 -27.984375 C 54.246094 -26.261719 29.519531 -40.253906 29.519531 -76.671875 C 29.519531 -124.015625 69.003906 -125.933594 87.597656 -125.164062 Z M 116.921875 -125.164062 "/></g></g></g><g fill="#000000" fill-opacity="1"><g transform="translate(192.281059, 320.777979)"><g><path d="M 122.289062 -2.875 L 60.761719 -75.328125 L 121.714844 -150.46875 C 123.058594 -151.808594 122.097656 -153.34375 119.992188 -153.34375 L 88.746094 -153.34375 C 88.363281 -153.34375 87.214844 -152.960938 87.023438 -152.765625 L 29.328125 -81.847656 L 29.328125 -151.617188 C 29.328125 -152.382812 28.558594 -153.34375 27.410156 -153.34375 L 2.109375 -153.34375 C 0.957031 -153.34375 0 -152.382812 0 -151.617188 L 0 -9.390625 C 0 -9.390625 37.378906 -51.753906 41.210938 -55.777344 L 85.871094 -0.574219 C 86.0625 -0.382812 87.214844 0 87.597656 0 L 120.566406 0 C 122.480469 0 123.441406 -1.339844 122.289062 -2.875 Z M 122.289062 -2.875 "/></g></g></g><g fill="#000000" fill-opacity="1"><g transform="translate(67.38216, 271.386778)"><g><path d="M 8.703125 -5.03125 L 6.375 -5.03125 L 6.375 -7.734375 L 11.828125 -7.734375 L 11.828125 -0.609375 C 11.429688 -0.421875 10.710938 -0.234375 9.671875 -0.046875 C 8.640625 0.128906 7.695312 0.21875 6.84375 0.21875 C 4.5 0.21875 2.867188 -0.316406 1.953125 -1.390625 C 1.035156 -2.472656 0.578125 -4.269531 0.578125 -6.78125 C 0.578125 -9.195312 1.109375 -10.960938 2.171875 -12.078125 C 3.242188 -13.191406 4.945312 -13.75 7.28125 -13.75 C 8.125 -13.75 8.878906 -13.726562 9.546875 -13.6875 C 10.222656 -13.65625 10.738281 -13.609375 11.09375 -13.546875 L 11.09375 -10.609375 C 10.625 -10.648438 10.0625 -10.679688 9.40625 -10.703125 C 8.75 -10.722656 8.039062 -10.734375 7.28125 -10.734375 C 6.457031 -10.734375 5.847656 -10.660156 5.453125 -10.515625 C 5.054688 -10.367188 4.757812 -10.117188 4.5625 -9.765625 C 4.375 -9.472656 4.238281 -9.082031 4.15625 -8.59375 C 4.070312 -8.113281 4.03125 -7.507812 4.03125 -6.78125 C 4.03125 -6.070312 4.066406 -5.476562 4.140625 -5 C 4.210938 -4.53125 4.328125 -4.148438 4.484375 -3.859375 C 4.691406 -3.472656 4.976562 -3.203125 5.34375 -3.046875 C 5.707031 -2.890625 6.28125 -2.8125 7.0625 -2.8125 C 7.320312 -2.8125 7.59375 -2.820312 7.875 -2.84375 C 8.15625 -2.863281 8.429688 -2.894531 8.703125 -2.9375 Z M 8.703125 -5.03125 "/></g></g></g><g fill="#000000" fill-opacity="1"><g transform="translate(91.627193, 271.386778)"><g><path d="M 13.328125 -6.78125 C 13.328125 -4.320312 12.828125 -2.539062 11.828125 -1.4375 C 10.828125 -0.332031 9.203125 0.21875 6.953125 0.21875 C 4.609375 0.21875 2.957031 -0.296875 2 -1.328125 C 1.050781 -2.367188 0.578125 -4.1875 0.578125 -6.78125 C 0.578125 -9.238281 1.078125 -11.015625 2.078125 -12.109375 C 3.078125 -13.203125 4.703125 -13.75 6.953125 -13.75 C 9.296875 -13.75 10.941406 -13.226562 11.890625 -12.1875 C 12.847656 -11.15625 13.328125 -9.351562 13.328125 -6.78125 Z M 4.390625 -3.890625 C 4.578125 -3.523438 4.851562 -3.269531 5.21875 -3.125 C 5.582031 -2.988281 6.160156 -2.921875 6.953125 -2.921875 C 7.742188 -2.921875 8.320312 -2.988281 8.6875 -3.125 C 9.050781 -3.269531 9.328125 -3.523438 9.515625 -3.890625 C 9.660156 -4.171875 9.765625 -4.539062 9.828125 -5 C 9.898438 -5.46875 9.9375 -6.0625 9.9375 -6.78125 C 9.9375 -7.507812 9.898438 -8.109375 9.828125 -8.578125 C 9.765625 -9.046875 9.660156 -9.425781 9.515625 -9.71875 C 9.347656 -10.09375 9.078125 -10.351562 8.703125 -10.5 C 8.335938 -10.65625 7.753906 -10.734375 6.953125 -10.734375 C 6.148438 -10.734375 5.5625 -10.65625 5.1875 -10.5 C 4.820312 -10.351562 4.554688 -10.09375 4.390625 -9.71875 C 4.242188 -9.425781 4.132812 -9.046875 4.0625 -8.578125 C 4 -8.109375 3.96875 -7.507812 3.96875 -6.78125 C 3.96875 -6.0625 4 -5.46875 4.0625 -5 C 4.132812 -4.539062 4.242188 -4.171875 4.390625 -3.890625 Z M 4.390625 -3.890625 "/></g></g></g><g fill="#000000" fill-opacity="1"><g transform="translate(117.296962, 271.386778)"><g><path d="M 8.140625 -6.96875 L 13.21875 0 L 8.984375 0 L 5.296875 -5.53125 L 4.390625 -5.53125 L 4.390625 0 L 1.03125 0 L 1.03125 -13.546875 L 4.390625 -13.546875 L 4.390625 -8.203125 L 5.296875 -8.203125 L 9.03125 -13.546875 L 13.046875 -13.546875 Z M 8.140625 -6.96875 "/></g></g></g><g fill="#000000" fill-opacity="1"><g transform="translate(142.016896, 271.386778)"><g><path d="M 9.203125 -5.703125 L 9.203125 -13.546875 L 12.546875 -13.546875 L 12.546875 -5.703125 C 12.546875 -3.734375 12.0625 -2.253906 11.09375 -1.265625 C 10.132812 -0.273438 8.691406 0.21875 6.765625 0.21875 C 4.734375 0.21875 3.25 -0.25 2.3125 -1.1875 C 1.382812 -2.125 0.921875 -3.628906 0.921875 -5.703125 L 0.921875 -13.546875 L 4.28125 -13.546875 L 4.28125 -5.703125 C 4.28125 -4.609375 4.445312 -3.867188 4.78125 -3.484375 C 5.125 -3.109375 5.785156 -2.921875 6.765625 -2.921875 C 7.722656 -2.921875 8.367188 -3.109375 8.703125 -3.484375 C 9.035156 -3.867188 9.203125 -4.609375 9.203125 -5.703125 Z M 9.203125 -5.703125 "/></g></g></g><g fill="#000000" fill-opacity="1"><g transform="translate(167.254928, 271.386778)"><g><path d="M 9.671875 -3.125 L 9.671875 0 L 1.03125 0 L 1.03125 -13.546875 L 4.390625 -13.546875 L 4.390625 -3.125 Z M 9.671875 -3.125 "/></g></g></g><g fill="#000000" fill-opacity="1"><g transform="translate(194.874519, 162.117061)"><g><path d="M 8.140625 -6.96875 L 13.21875 0 L 8.984375 0 L 5.296875 -5.53125 L 4.390625 -5.53125 L 4.390625 0 L 1.03125 0 L 1.03125 -13.546875 L 4.390625 -13.546875 L 4.390625 -8.203125 L 5.296875 -8.203125 L 9.03125 -13.546875 L 13.046875 -13.546875 Z M 8.140625 -6.96875 "/></g></g></g><g fill="#000000" fill-opacity="1"><g transform="translate(208.927923, 162.117061)"><g><path d="M 4.390625 -4.359375 L 4.390625 0 L 1.03125 0 L 1.03125 -13.546875 L 5.984375 -13.546875 C 8.066406 -13.546875 9.546875 -13.191406 10.421875 -12.484375 C 11.304688 -11.773438 11.75 -10.601562 11.75 -8.96875 C 11.75 -7.851562 11.515625 -6.945312 11.046875 -6.25 C 10.578125 -5.550781 9.867188 -5.046875 8.921875 -4.734375 L 12.21875 0 L 8.203125 0 L 5.40625 -4.359375 Z M 8.359375 -8.96875 C 8.359375 -9.539062 8.179688 -9.941406 7.828125 -10.171875 C 7.484375 -10.398438 6.867188 -10.515625 5.984375 -10.515625 L 4.390625 -10.515625 L 4.390625 -7.0625 L 5.984375 -7.0625 C 6.867188 -7.0625 7.484375 -7.203125 7.828125 -7.484375 C 8.179688 -7.765625 8.359375 -8.257812 8.359375 -8.96875 Z M 8.359375 -8.96875 "/></g></g></g><g fill="#000000" fill-opacity="1"><g transform="translate(222.484836, 162.117061)"><g><path d="M 4.390625 -13.546875 L 4.390625 0 L 1.03125 0 L 1.03125 -13.546875 Z M 4.390625 -13.546875 "/></g></g></g><g fill="#000000" fill-opacity="1"><g transform="translate(229.004376, 162.117061)"><g><path d="M 6.171875 -5.046875 L 3.4375 -5.703125 C 2.34375 -5.960938 1.597656 -6.359375 1.203125 -6.890625 C 0.804688 -7.421875 0.609375 -8.179688 0.609375 -9.171875 C 0.609375 -10.742188 1.019531 -11.898438 1.84375 -12.640625 C 2.675781 -13.378906 3.960938 -13.75 5.703125 -13.75 C 6.421875 -13.75 7.0625 -13.71875 7.625 -13.65625 C 8.1875 -13.601562 8.703125 -13.503906 9.171875 -13.359375 L 9.171875 -10.359375 C 8.078125 -10.546875 7.328125 -10.65625 6.921875 -10.6875 C 6.515625 -10.71875 6.085938 -10.734375 5.640625 -10.734375 C 5.035156 -10.734375 4.59375 -10.628906 4.3125 -10.421875 C 4.039062 -10.222656 3.90625 -9.890625 3.90625 -9.421875 C 3.90625 -9.179688 3.945312 -9 4.03125 -8.875 C 4.125 -8.757812 4.289062 -8.671875 4.53125 -8.609375 L 7.125 -8.015625 C 7.875 -7.835938 8.410156 -7.664062 8.734375 -7.5 C 9.066406 -7.332031 9.335938 -7.117188 9.546875 -6.859375 C 9.773438 -6.585938 9.941406 -6.234375 10.046875 -5.796875 C 10.160156 -5.367188 10.21875 -4.847656 10.21875 -4.234375 C 10.21875 -2.660156 9.796875 -1.523438 8.953125 -0.828125 C 8.117188 -0.128906 6.828125 0.21875 5.078125 0.21875 C 4.179688 0.21875 3.328125 0.160156 2.515625 0.046875 C 1.710938 -0.0546875 1.085938 -0.1875 0.640625 -0.34375 L 0.640625 -3.515625 C 1.222656 -3.328125 1.910156 -3.179688 2.703125 -3.078125 C 3.492188 -2.972656 4.285156 -2.921875 5.078125 -2.921875 C 5.710938 -2.921875 6.148438 -3 6.390625 -3.15625 C 6.640625 -3.3125 6.765625 -3.628906 6.765625 -4.109375 C 6.765625 -4.410156 6.722656 -4.628906 6.640625 -4.765625 C 6.554688 -4.898438 6.398438 -4.992188 6.171875 -5.046875 Z M 6.171875 -5.046875 "/></g></g></g><g fill="#000000" fill-opacity="1"><g transform="translate(240.66162, 162.117061)"><g><path d="M 4.390625 0 L 1.03125 0 L 1.03125 -13.546875 L 4.390625 -13.546875 L 4.390625 -8.375 L 9.140625 -8.375 L 9.140625 -13.546875 L 12.484375 -13.546875 L 12.484375 0 L 9.140625 0 L 9.140625 -5.359375 L 4.390625 -5.359375 Z M 4.390625 0 "/></g></g></g><g fill="#000000" fill-opacity="1"><g transform="translate(255.276288, 162.117061)"><g><path d="M 12.71875 -13.546875 L 12.71875 0 L 9.515625 0 L 4.171875 -7.8125 L 4.171875 0 L 1.03125 0 L 1.03125 -13.546875 L 4.203125 -13.546875 L 9.59375 -5.421875 L 9.59375 -13.546875 Z M 12.71875 -13.546875 "/></g></g></g><g fill="#000000" fill-opacity="1"><g transform="translate(270.128425, 162.117061)"><g><path d="M 3.453125 0 L -0.0625 0 L 4.9375 -13.546875 L 8.421875 -13.546875 L 13.296875 0 L 9.796875 0 L 9.09375 -2.265625 L 4.171875 -2.265625 Z M 6.609375 -10.21875 C 6.492188 -9.8125 6.367188 -9.378906 6.234375 -8.921875 C 6.097656 -8.472656 5.867188 -7.738281 5.546875 -6.71875 L 4.984375 -4.921875 L 8.25 -4.921875 L 7.6875 -6.71875 C 7.5 -7.257812 7.3125 -7.835938 7.125 -8.453125 C 6.9375 -9.066406 6.765625 -9.65625 6.609375 -10.21875 Z M 6.609375 -10.21875 "/></g></g></g></svg>